<mxfile host="app.diagrams.net" modified="2023-11-04T07:59:56.624Z" agent="Mozilla/5.0 (Windows NT 10.0; Win64; x64; rv:109.0) Gecko/20100101 Firefox/115.0" etag="Cyf4-fOE1Nq3W1l30mtN" version="22.0.8" type="device">
  <diagram name="Page-1" id="5XbYkh7nah33-01qVDlc">
    <mxGraphModel dx="1206" dy="801" grid="1" gridSize="10" guides="1" tooltips="1" connect="1" arrows="1" fold="1" page="1" pageScale="1" pageWidth="850" pageHeight="1100" math="0" shadow="0">
      <root>
        <mxCell id="0" />
        <mxCell id="1" parent="0" />
        <mxCell id="SwoyGDu4tdv3MxGLi-dW-1" value="" style="endArrow=none;html=1;rounded=0;" edge="1" parent="1">
          <mxGeometry width="50" height="50" relative="1" as="geometry">
            <mxPoint x="160" y="280" as="sourcePoint" />
            <mxPoint x="770" y="280" as="targetPoint" />
          </mxGeometry>
        </mxCell>
        <mxCell id="SwoyGDu4tdv3MxGLi-dW-2" value="Camera Setup" style="rounded=1;whiteSpace=wrap;html=1;" vertex="1" parent="1">
          <mxGeometry x="159" y="140" width="161" height="140" as="geometry" />
        </mxCell>
        <mxCell id="SwoyGDu4tdv3MxGLi-dW-3" value="" style="endArrow=none;html=1;rounded=0;" edge="1" parent="1">
          <mxGeometry width="50" height="50" relative="1" as="geometry">
            <mxPoint x="480" y="270" as="sourcePoint" />
            <mxPoint x="480" y="290" as="targetPoint" />
          </mxGeometry>
        </mxCell>
        <mxCell id="SwoyGDu4tdv3MxGLi-dW-4" value="1L&amp;nbsp;&amp;nbsp;&amp;nbsp;&amp;nbsp;&amp;nbsp; 1.25L&amp;nbsp;&amp;nbsp;&amp;nbsp;&amp;nbsp; 1.5L&amp;nbsp;&amp;nbsp;&amp;nbsp; 1.75L&amp;nbsp;&amp;nbsp;&amp;nbsp;&amp;nbsp; 2L" style="text;html=1;strokeColor=none;fillColor=none;align=left;verticalAlign=middle;whiteSpace=wrap;rounded=0;" vertex="1" parent="1">
          <mxGeometry x="470" y="290" width="180" height="30" as="geometry" />
        </mxCell>
        <mxCell id="SwoyGDu4tdv3MxGLi-dW-6" value="" style="endArrow=none;html=1;rounded=0;" edge="1" parent="1">
          <mxGeometry width="50" height="50" relative="1" as="geometry">
            <mxPoint x="520" y="270" as="sourcePoint" />
            <mxPoint x="520" y="290" as="targetPoint" />
          </mxGeometry>
        </mxCell>
        <mxCell id="SwoyGDu4tdv3MxGLi-dW-7" value="" style="endArrow=none;html=1;rounded=0;" edge="1" parent="1">
          <mxGeometry width="50" height="50" relative="1" as="geometry">
            <mxPoint x="560" y="270" as="sourcePoint" />
            <mxPoint x="560" y="290" as="targetPoint" />
          </mxGeometry>
        </mxCell>
        <mxCell id="SwoyGDu4tdv3MxGLi-dW-8" value="" style="endArrow=none;html=1;rounded=0;" edge="1" parent="1">
          <mxGeometry width="50" height="50" relative="1" as="geometry">
            <mxPoint x="600" y="270" as="sourcePoint" />
            <mxPoint x="600" y="290" as="targetPoint" />
          </mxGeometry>
        </mxCell>
        <mxCell id="SwoyGDu4tdv3MxGLi-dW-9" value="" style="endArrow=none;html=1;rounded=0;" edge="1" parent="1">
          <mxGeometry width="50" height="50" relative="1" as="geometry">
            <mxPoint x="640" y="270" as="sourcePoint" />
            <mxPoint x="640" y="290" as="targetPoint" />
          </mxGeometry>
        </mxCell>
        <mxCell id="SwoyGDu4tdv3MxGLi-dW-10" value="Suitcase" style="rounded=1;whiteSpace=wrap;html=1;" vertex="1" parent="1">
          <mxGeometry x="450" y="200" width="60" height="80" as="geometry" />
        </mxCell>
        <mxCell id="SwoyGDu4tdv3MxGLi-dW-11" value="" style="rounded=0;whiteSpace=wrap;html=1;rotation=-45;" vertex="1" parent="1">
          <mxGeometry x="600" y="50" width="30" height="40" as="geometry" />
        </mxCell>
        <mxCell id="SwoyGDu4tdv3MxGLi-dW-12" value="" style="triangle;whiteSpace=wrap;html=1;rotation=-50;" vertex="1" parent="1">
          <mxGeometry x="570" y="70" width="40" height="50" as="geometry" />
        </mxCell>
        <mxCell id="SwoyGDu4tdv3MxGLi-dW-13" value="Additional Lighting" style="text;html=1;strokeColor=none;fillColor=none;align=center;verticalAlign=middle;whiteSpace=wrap;rounded=0;" vertex="1" parent="1">
          <mxGeometry x="607" y="93" width="60" height="30" as="geometry" />
        </mxCell>
      </root>
    </mxGraphModel>
  </diagram>
</mxfile>
